<?xml version="1.0" encoding="UTF-8" standalone="no"?>
<!DOCTYPE svg PUBLIC "-//W3C//DTD SVG 1.1//EN"
 "http://www.w3.org/Graphics/SVG/1.1/DTD/svg11.dtd">
<!-- Generated by graphviz version 3.0.0 (20220226.1711)
 -->
<!-- Title: dependencies Pages: 1 -->
<svg width="642pt" height="247pt"
 viewBox="0.00 0.00 642.00 246.80" xmlns="http://www.w3.org/2000/svg" xmlns:xlink="http://www.w3.org/1999/xlink">
<g id="graph0" class="graph" transform="scale(1 1) rotate(0) translate(4 242.8)">
<title>dependencies</title>
<polygon fill="white" stroke="transparent" points="-4,4 -4,-242.8 638,-242.8 638,4 -4,4"/>
<text text-anchor="middle" x="317" y="-8.2" font-family="sans-serif" font-size="14.00">dependencies</text>
<g id="clust1" class="cluster">
<title>cluster_SharedModule</title>
<polygon fill="none" stroke="black" stroke-dasharray="1,5" points="8,-32.8 8,-230.8 626,-230.8 626,-32.8 8,-32.8"/>
</g>
<g id="clust2" class="cluster">
<title>cluster_SharedModule_declarations</title>
<polygon fill="none" stroke="black" points="25,-40.8 25,-92.8 612,-92.8 612,-40.8 25,-40.8"/>
</g>
<g id="clust8" class="cluster">
<title>cluster_SharedModule_exports</title>
<polygon fill="none" stroke="black" points="16,-170.8 16,-222.8 618,-222.8 618,-170.8 16,-170.8"/>
</g>
<!-- CalendarComponent -->
<g id="node1" class="node">
<title>CalendarComponent</title>
<polygon fill="#ffffb3" stroke="black" points="603.86,-84.8 472.14,-84.8 472.14,-48.8 603.86,-48.8 603.86,-84.8"/>
<text text-anchor="middle" x="538" y="-62.6" font-family="Times,serif" font-size="14.00">CalendarComponent</text>
</g>
<!-- SharedModule -->
<g id="node5" class="node">
<title>SharedModule</title>
<polygon fill="#8dd3c7" stroke="black" points="326.43,-149.8 323.43,-153.8 302.43,-153.8 299.43,-149.8 227.57,-149.8 227.57,-113.8 326.43,-113.8 326.43,-149.8"/>
<text text-anchor="middle" x="277" y="-127.6" font-family="Times,serif" font-size="14.00">SharedModule</text>
</g>
<!-- CalendarComponent&#45;&gt;SharedModule -->
<g id="edge1" class="edge">
<title>CalendarComponent&#45;&gt;SharedModule</title>
<path fill="none" stroke="black" d="M560.73,-85.07C560.73,-103.36 560.73,-128.8 560.73,-128.8 560.73,-128.8 336.42,-128.8 336.42,-128.8"/>
<polygon fill="black" stroke="black" points="336.42,-125.3 326.42,-128.8 336.42,-132.3 336.42,-125.3"/>
</g>
<!-- InputComponent -->
<g id="node2" class="node">
<title>InputComponent</title>
<polygon fill="#ffffb3" stroke="black" points="454.38,-84.8 343.62,-84.8 343.62,-48.8 454.38,-48.8 454.38,-84.8"/>
<text text-anchor="middle" x="399" y="-62.6" font-family="Times,serif" font-size="14.00">InputComponent</text>
</g>
<!-- InputComponent&#45;&gt;SharedModule -->
<g id="edge2" class="edge">
<title>InputComponent&#45;&gt;SharedModule</title>
<path fill="none" stroke="black" d="M417.48,-84.81C417.48,-100.85 417.48,-121.8 417.48,-121.8 417.48,-121.8 336.53,-121.8 336.53,-121.8"/>
<polygon fill="black" stroke="black" points="336.53,-118.3 326.53,-121.8 336.53,-125.3 336.53,-118.3"/>
</g>
<!-- TabComponent -->
<g id="node3" class="node">
<title>TabComponent</title>
<polygon fill="#ffffb3" stroke="black" points="325.6,-84.8 222.4,-84.8 222.4,-48.8 325.6,-48.8 325.6,-84.8"/>
<text text-anchor="middle" x="274" y="-62.6" font-family="Times,serif" font-size="14.00">TabComponent</text>
</g>
<!-- TabComponent&#45;&gt;SharedModule -->
<g id="edge3" class="edge">
<title>TabComponent&#45;&gt;SharedModule</title>
<path fill="none" stroke="black" d="M276.67,-84.91C276.67,-84.91 276.67,-103.79 276.67,-103.79"/>
<polygon fill="black" stroke="black" points="273.17,-103.79 276.67,-113.79 280.17,-103.79 273.17,-103.79"/>
</g>
<!-- UserCredentialsComponent -->
<g id="node4" class="node">
<title>UserCredentialsComponent</title>
<polygon fill="#ffffb3" stroke="black" points="204.53,-84.8 33.47,-84.8 33.47,-48.8 204.53,-48.8 204.53,-84.8"/>
<text text-anchor="middle" x="119" y="-62.6" font-family="Times,serif" font-size="14.00">UserCredentialsComponent</text>
</g>
<!-- UserCredentialsComponent&#45;&gt;SharedModule -->
<g id="edge4" class="edge">
<title>UserCredentialsComponent&#45;&gt;SharedModule</title>
<path fill="none" stroke="black" d="M144.09,-84.82C144.09,-102.17 144.09,-125.8 144.09,-125.8 144.09,-125.8 217.51,-125.8 217.51,-125.8"/>
<polygon fill="black" stroke="black" points="217.51,-129.3 227.51,-125.8 217.51,-122.3 217.51,-129.3"/>
</g>
<!-- CalendarComponent  -->
<g id="node6" class="node">
<title>CalendarComponent </title>
<polygon fill="#fb8072" stroke="black" points="609.86,-214.8 474.14,-214.8 474.14,-178.8 609.86,-178.8 609.86,-214.8"/>
<text text-anchor="middle" x="542" y="-192.6" font-family="Times,serif" font-size="14.00">CalendarComponent </text>
</g>
<!-- SharedModule&#45;&gt;CalendarComponent  -->
<g id="edge5" class="edge">
<title>SharedModule&#45;&gt;CalendarComponent </title>
<path fill="none" stroke="black" stroke-dasharray="5,2" d="M326.25,-135.8C396.62,-135.8 517.52,-135.8 517.52,-135.8 517.52,-135.8 517.52,-168.5 517.52,-168.5"/>
<polygon fill="black" stroke="black" points="514.02,-168.5 517.52,-178.5 521.02,-168.5 514.02,-168.5"/>
</g>
<!-- InputComponent  -->
<g id="node7" class="node">
<title>InputComponent </title>
<polygon fill="#fb8072" stroke="black" points="456.38,-214.8 341.62,-214.8 341.62,-178.8 456.38,-178.8 456.38,-214.8"/>
<text text-anchor="middle" x="399" y="-192.6" font-family="Times,serif" font-size="14.00">InputComponent </text>
</g>
<!-- SharedModule&#45;&gt;InputComponent  -->
<g id="edge6" class="edge">
<title>SharedModule&#45;&gt;InputComponent </title>
<path fill="none" stroke="black" stroke-dasharray="5,2" d="M326.33,-142.8C353,-142.8 380.52,-142.8 380.52,-142.8 380.52,-142.8 380.52,-168.52 380.52,-168.52"/>
<polygon fill="black" stroke="black" points="377.02,-168.52 380.52,-178.52 384.02,-168.52 377.02,-168.52"/>
</g>
<!-- TabComponent  -->
<g id="node8" class="node">
<title>TabComponent </title>
<polygon fill="#fb8072" stroke="black" points="324.1,-214.8 217.9,-214.8 217.9,-178.8 324.1,-178.8 324.1,-214.8"/>
<text text-anchor="middle" x="271" y="-192.6" font-family="Times,serif" font-size="14.00">TabComponent </text>
</g>
<!-- SharedModule&#45;&gt;TabComponent  -->
<g id="edge7" class="edge">
<title>SharedModule&#45;&gt;TabComponent </title>
<path fill="none" stroke="black" stroke-dasharray="5,2" d="M276.04,-149.91C276.04,-149.91 276.04,-168.79 276.04,-168.79"/>
<polygon fill="black" stroke="black" points="272.54,-168.79 276.04,-178.79 279.54,-168.79 272.54,-168.79"/>
</g>
<!-- UserCredentialsComponent  -->
<g id="node9" class="node">
<title>UserCredentialsComponent </title>
<polygon fill="#fb8072" stroke="black" points="199.52,-214.8 24.48,-214.8 24.48,-178.8 199.52,-178.8 199.52,-214.8"/>
<text text-anchor="middle" x="112" y="-192.6" font-family="Times,serif" font-size="14.00">UserCredentialsComponent </text>
</g>
<!-- SharedModule&#45;&gt;UserCredentialsComponent  -->
<g id="edge8" class="edge">
<title>SharedModule&#45;&gt;UserCredentialsComponent </title>
<path fill="none" stroke="black" stroke-dasharray="5,2" d="M227.52,-137.8C171.72,-137.8 88.66,-137.8 88.66,-137.8 88.66,-137.8 88.66,-168.78 88.66,-168.78"/>
<polygon fill="black" stroke="black" points="85.16,-168.78 88.66,-178.78 92.16,-168.78 85.16,-168.78"/>
</g>
</g>
</svg>
