<?xml version="1.0" encoding="UTF-8" standalone="no"?>
<!DOCTYPE svg PUBLIC "-//W3C//DTD SVG 1.1//EN"
 "http://www.w3.org/Graphics/SVG/1.1/DTD/svg11.dtd">
<!-- Generated by graphviz version 3.0.0 (20220226.1711)
 -->
<!-- Title: dependencies Pages: 1 -->
<svg width="324pt" height="247pt"
 viewBox="0.00 0.00 324.00 246.80" xmlns="http://www.w3.org/2000/svg" xmlns:xlink="http://www.w3.org/1999/xlink">
<g id="graph0" class="graph" transform="scale(1 1) rotate(0) translate(4 242.8)">
<title>dependencies</title>
<polygon fill="white" stroke="transparent" points="-4,4 -4,-242.8 320,-242.8 320,4 -4,4"/>
<text text-anchor="middle" x="158" y="-8.2" font-family="sans-serif" font-size="14.00">dependencies</text>
<g id="clust1" class="cluster">
<title>cluster_SharedModule</title>
<polygon fill="none" stroke="black" stroke-dasharray="1,5" points="8,-32.8 8,-230.8 308,-230.8 308,-32.8 8,-32.8"/>
</g>
<g id="clust6" class="cluster">
<title>cluster_SharedModule_exports</title>
<polygon fill="none" stroke="black" points="16,-170.8 16,-222.8 300,-222.8 300,-170.8 16,-170.8"/>
</g>
<g id="clust2" class="cluster">
<title>cluster_SharedModule_declarations</title>
<polygon fill="none" stroke="black" points="20,-40.8 20,-92.8 296,-92.8 296,-40.8 20,-40.8"/>
</g>
<!-- CalendarComponent -->
<g id="node1" class="node">
<title>CalendarComponent</title>
<polygon fill="#ffffb3" stroke="black" points="287.86,-84.8 156.14,-84.8 156.14,-48.8 287.86,-48.8 287.86,-84.8"/>
<text text-anchor="middle" x="222" y="-62.6" font-family="Times,serif" font-size="14.00">CalendarComponent</text>
</g>
<!-- SharedModule -->
<g id="node3" class="node">
<title>SharedModule</title>
<polygon fill="#8dd3c7" stroke="black" points="133.43,-149.8 130.43,-153.8 109.43,-153.8 106.43,-149.8 34.57,-149.8 34.57,-113.8 133.43,-113.8 133.43,-149.8"/>
<text text-anchor="middle" x="84" y="-127.6" font-family="Times,serif" font-size="14.00">SharedModule</text>
</g>
<!-- CalendarComponent&#45;&gt;SharedModule -->
<g id="edge1" class="edge">
<title>CalendarComponent&#45;&gt;SharedModule</title>
<path fill="none" stroke="black" d="M244.06,-84.82C244.06,-102.17 244.06,-125.8 244.06,-125.8 244.06,-125.8 143.33,-125.8 143.33,-125.8"/>
<polygon fill="black" stroke="black" points="143.33,-122.3 133.33,-125.8 143.33,-129.3 143.33,-122.3"/>
</g>
<!-- InputComponent -->
<g id="node2" class="node">
<title>InputComponent</title>
<polygon fill="#ffffb3" stroke="black" points="138.38,-84.8 27.62,-84.8 27.62,-48.8 138.38,-48.8 138.38,-84.8"/>
<text text-anchor="middle" x="83" y="-62.6" font-family="Times,serif" font-size="14.00">InputComponent</text>
</g>
<!-- InputComponent&#45;&gt;SharedModule -->
<g id="edge2" class="edge">
<title>InputComponent&#45;&gt;SharedModule</title>
<path fill="none" stroke="black" d="M84,-84.91C84,-84.91 84,-103.79 84,-103.79"/>
<polygon fill="black" stroke="black" points="80.5,-103.79 84,-113.79 87.5,-103.79 80.5,-103.79"/>
</g>
<!-- CalendarComponent  -->
<g id="node4" class="node">
<title>CalendarComponent </title>
<polygon fill="#fb8072" stroke="black" points="291.86,-214.8 156.14,-214.8 156.14,-178.8 291.86,-178.8 291.86,-214.8"/>
<text text-anchor="middle" x="224" y="-192.6" font-family="Times,serif" font-size="14.00">CalendarComponent </text>
</g>
<!-- SharedModule&#45;&gt;CalendarComponent  -->
<g id="edge3" class="edge">
<title>SharedModule&#45;&gt;CalendarComponent </title>
<path fill="none" stroke="black" stroke-dasharray="5,2" d="M133.27,-137.8C164.94,-137.8 200.19,-137.8 200.19,-137.8 200.19,-137.8 200.19,-168.78 200.19,-168.78"/>
<polygon fill="black" stroke="black" points="196.69,-168.78 200.19,-178.78 203.69,-168.78 196.69,-168.78"/>
</g>
<!-- InputComponent  -->
<g id="node5" class="node">
<title>InputComponent </title>
<polygon fill="#fb8072" stroke="black" points="138.38,-214.8 23.62,-214.8 23.62,-178.8 138.38,-178.8 138.38,-214.8"/>
<text text-anchor="middle" x="81" y="-192.6" font-family="Times,serif" font-size="14.00">InputComponent </text>
</g>
<!-- SharedModule&#45;&gt;InputComponent  -->
<g id="edge4" class="edge">
<title>SharedModule&#45;&gt;InputComponent </title>
<path fill="none" stroke="black" stroke-dasharray="5,2" d="M84,-149.91C84,-149.91 84,-168.79 84,-168.79"/>
<polygon fill="black" stroke="black" points="80.5,-168.79 84,-178.79 87.5,-168.79 80.5,-168.79"/>
</g>
</g>
</svg>
