<?xml version="1.0" encoding="UTF-8" standalone="no"?>
<!DOCTYPE svg PUBLIC "-//W3C//DTD SVG 1.1//EN"
 "http://www.w3.org/Graphics/SVG/1.1/DTD/svg11.dtd">
<!-- Generated by graphviz version 3.0.0 (20220226.1711)
 -->
<!-- Title: dependencies Pages: 1 -->
<svg width="1030pt" height="174pt"
 viewBox="0.00 0.00 1030.00 173.80" xmlns="http://www.w3.org/2000/svg" xmlns:xlink="http://www.w3.org/1999/xlink">
<g id="graph0" class="graph" transform="scale(1 1) rotate(0) translate(4 169.8)">
<title>dependencies</title>
<polygon fill="white" stroke="transparent" points="-4,4 -4,-169.8 1026,-169.8 1026,4 -4,4"/>
<text text-anchor="middle" x="511" y="-8.2" font-family="sans-serif" font-size="14.00">dependencies</text>
<g id="clust1" class="cluster">
<title>cluster_ManagerModule</title>
<polygon fill="none" stroke="black" stroke-dasharray="1,5" points="8,-32.8 8,-157.8 1014,-157.8 1014,-32.8 8,-32.8"/>
</g>
<g id="clust7" class="cluster">
<title>cluster_ManagerModule_providers</title>
<polygon fill="none" stroke="black" points="516,-40.8 516,-92.8 1006,-92.8 1006,-40.8 516,-40.8"/>
</g>
<g id="clust2" class="cluster">
<title>cluster_ManagerModule_declarations</title>
<polygon fill="none" stroke="black" points="310,-40.8 310,-92.8 508,-92.8 508,-40.8 310,-40.8"/>
</g>
<g id="clust4" class="cluster">
<title>cluster_ManagerModule_imports</title>
<polygon fill="none" stroke="black" points="16,-40.8 16,-92.8 302,-92.8 302,-40.8 16,-40.8"/>
</g>
<!-- TaskManagementComponent -->
<g id="node1" class="node">
<title>TaskManagementComponent</title>
<polygon fill="#ffffb3" stroke="black" points="499.63,-84.8 318.37,-84.8 318.37,-48.8 499.63,-48.8 499.63,-84.8"/>
<text text-anchor="middle" x="409" y="-62.6" font-family="Times,serif" font-size="14.00">TaskManagementComponent</text>
</g>
<!-- ManagerModule -->
<g id="node2" class="node">
<title>ManagerModule</title>
<polygon fill="#8dd3c7" stroke="black" points="463.8,-149.8 460.8,-153.8 439.8,-153.8 436.8,-149.8 354.2,-149.8 354.2,-113.8 463.8,-113.8 463.8,-149.8"/>
<text text-anchor="middle" x="409" y="-127.6" font-family="Times,serif" font-size="14.00">ManagerModule</text>
</g>
<!-- TaskManagementComponent&#45;&gt;ManagerModule -->
<g id="edge1" class="edge">
<title>TaskManagementComponent&#45;&gt;ManagerModule</title>
<path fill="none" stroke="black" d="M409,-84.91C409,-84.91 409,-103.79 409,-103.79"/>
<polygon fill="black" stroke="black" points="405.5,-103.79 409,-113.79 412.5,-103.79 405.5,-103.79"/>
</g>
<!-- ManagerRoutingModule -->
<g id="node3" class="node">
<title>ManagerRoutingModule</title>
<polygon fill="#8dd3c7" stroke="black" points="294.42,-84.8 291.42,-88.8 270.42,-88.8 267.42,-84.8 139.58,-84.8 139.58,-48.8 294.42,-48.8 294.42,-84.8"/>
<text text-anchor="middle" x="217" y="-62.6" font-family="Times,serif" font-size="14.00">ManagerRoutingModule</text>
</g>
<!-- ManagerRoutingModule&#45;&gt;ManagerModule -->
<g id="edge2" class="edge">
<title>ManagerRoutingModule&#45;&gt;ManagerModule</title>
<path fill="none" stroke="black" d="M217,-84.82C217,-102.17 217,-125.8 217,-125.8 217,-125.8 344.24,-125.8 344.24,-125.8"/>
<polygon fill="black" stroke="black" points="344.24,-129.3 354.24,-125.8 344.24,-122.3 344.24,-129.3"/>
</g>
<!-- SharedModule -->
<g id="node4" class="node">
<title>SharedModule</title>
<polygon fill="#8dd3c7" stroke="black" points="122.43,-84.8 119.43,-88.8 98.43,-88.8 95.43,-84.8 23.57,-84.8 23.57,-48.8 122.43,-48.8 122.43,-84.8"/>
<text text-anchor="middle" x="73" y="-62.6" font-family="Times,serif" font-size="14.00">SharedModule</text>
</g>
<!-- SharedModule&#45;&gt;ManagerModule -->
<g id="edge3" class="edge">
<title>SharedModule&#45;&gt;ManagerModule</title>
<path fill="none" stroke="black" d="M73,-85.08C73,-106.12 73,-137.8 73,-137.8 73,-137.8 344.27,-137.8 344.27,-137.8"/>
<polygon fill="black" stroke="black" points="344.27,-141.3 354.27,-137.8 344.27,-134.3 344.27,-141.3"/>
</g>
<!-- ManagerTaskDataService -->
<g id="node5" class="node">
<title>ManagerTaskDataService</title>
<ellipse fill="#fdb462" stroke="black" cx="887" cy="-66.8" rx="111.12" ry="18"/>
<text text-anchor="middle" x="887" y="-62.6" font-family="Times,serif" font-size="14.00">ManagerTaskDataService</text>
</g>
<!-- ManagerTaskDataService&#45;&gt;ManagerModule -->
<g id="edge4" class="edge">
<title>ManagerTaskDataService&#45;&gt;ManagerModule</title>
<path fill="none" stroke="black" d="M887,-85.08C887,-106.12 887,-137.8 887,-137.8 887,-137.8 473.83,-137.8 473.83,-137.8"/>
<polygon fill="black" stroke="black" points="473.83,-134.3 463.83,-137.8 473.83,-141.3 473.83,-134.3"/>
</g>
<!-- ManagerTaskEntityService -->
<g id="node6" class="node">
<title>ManagerTaskEntityService</title>
<ellipse fill="#fdb462" stroke="black" cx="641" cy="-66.8" rx="116.88" ry="18"/>
<text text-anchor="middle" x="641" y="-62.6" font-family="Times,serif" font-size="14.00">ManagerTaskEntityService</text>
</g>
<!-- ManagerTaskEntityService&#45;&gt;ManagerModule -->
<g id="edge5" class="edge">
<title>ManagerTaskEntityService&#45;&gt;ManagerModule</title>
<path fill="none" stroke="black" d="M641,-84.82C641,-102.17 641,-125.8 641,-125.8 641,-125.8 473.69,-125.8 473.69,-125.8"/>
<polygon fill="black" stroke="black" points="473.69,-122.3 463.69,-125.8 473.69,-129.3 473.69,-122.3"/>
</g>
</g>
</svg>
