<?xml version="1.0" encoding="UTF-8" standalone="no"?>
<!DOCTYPE svg PUBLIC "-//W3C//DTD SVG 1.1//EN"
 "http://www.w3.org/Graphics/SVG/1.1/DTD/svg11.dtd">
<!-- Generated by graphviz version 3.0.0 (20220226.1711)
 -->
<!-- Title: dependencies Pages: 1 -->
<svg width="1200pt" height="174pt"
 viewBox="0.00 0.00 1200.00 173.80" xmlns="http://www.w3.org/2000/svg" xmlns:xlink="http://www.w3.org/1999/xlink">
<g id="graph0" class="graph" transform="scale(1 1) rotate(0) translate(4 169.8)">
<title>dependencies</title>
<polygon fill="white" stroke="transparent" points="-4,4 -4,-169.8 1196,-169.8 1196,4 -4,4"/>
<text text-anchor="middle" x="596" y="-8.2" font-family="sans-serif" font-size="14.00">dependencies</text>
<g id="clust1" class="cluster">
<title>cluster_EmployeeModule</title>
<polygon fill="none" stroke="black" stroke-dasharray="1,5" points="8,-32.8 8,-157.8 1184,-157.8 1184,-32.8 8,-32.8"/>
</g>
<g id="clust5" class="cluster">
<title>cluster_EmployeeModule_imports</title>
<polygon fill="none" stroke="black" points="882,-40.8 882,-92.8 1176,-92.8 1176,-40.8 882,-40.8"/>
</g>
<g id="clust8" class="cluster">
<title>cluster_EmployeeModule_providers</title>
<polygon fill="none" stroke="black" points="364,-40.8 364,-92.8 874,-92.8 874,-40.8 364,-40.8"/>
</g>
<g id="clust2" class="cluster">
<title>cluster_EmployeeModule_declarations</title>
<polygon fill="none" stroke="black" points="16,-40.8 16,-92.8 356,-92.8 356,-40.8 16,-40.8"/>
</g>
<!-- TaskCalendarComponent -->
<g id="node1" class="node">
<title>TaskCalendarComponent</title>
<polygon fill="#ffffb3" stroke="black" points="347.58,-84.8 188.42,-84.8 188.42,-48.8 347.58,-48.8 347.58,-84.8"/>
<text text-anchor="middle" x="268" y="-62.6" font-family="Times,serif" font-size="14.00">TaskCalendarComponent</text>
</g>
<!-- EmployeeModule -->
<g id="node3" class="node">
<title>EmployeeModule</title>
<polygon fill="#8dd3c7" stroke="black" points="680.31,-149.8 677.31,-153.8 656.31,-153.8 653.31,-149.8 563.69,-149.8 563.69,-113.8 680.31,-113.8 680.31,-149.8"/>
<text text-anchor="middle" x="622" y="-127.6" font-family="Times,serif" font-size="14.00">EmployeeModule</text>
</g>
<!-- TaskCalendarComponent&#45;&gt;EmployeeModule -->
<g id="edge1" class="edge">
<title>TaskCalendarComponent&#45;&gt;EmployeeModule</title>
<path fill="none" stroke="black" d="M268,-84.82C268,-102.17 268,-125.8 268,-125.8 268,-125.8 553.54,-125.8 553.54,-125.8"/>
<polygon fill="black" stroke="black" points="553.54,-129.3 563.54,-125.8 553.54,-122.3 553.54,-129.3"/>
</g>
<!-- TaskDialogComponent -->
<g id="node2" class="node">
<title>TaskDialogComponent</title>
<polygon fill="#ffffb3" stroke="black" points="170.15,-84.8 23.85,-84.8 23.85,-48.8 170.15,-48.8 170.15,-84.8"/>
<text text-anchor="middle" x="97" y="-62.6" font-family="Times,serif" font-size="14.00">TaskDialogComponent</text>
</g>
<!-- TaskDialogComponent&#45;&gt;EmployeeModule -->
<g id="edge2" class="edge">
<title>TaskDialogComponent&#45;&gt;EmployeeModule</title>
<path fill="none" stroke="black" d="M97,-85.08C97,-106.12 97,-137.8 97,-137.8 97,-137.8 553.81,-137.8 553.81,-137.8"/>
<polygon fill="black" stroke="black" points="553.81,-141.3 563.81,-137.8 553.81,-134.3 553.81,-141.3"/>
</g>
<!-- EmployeeRoutingModule -->
<g id="node4" class="node">
<title>EmployeeRoutingModule</title>
<polygon fill="#8dd3c7" stroke="black" points="1167.93,-84.8 1164.93,-88.8 1143.93,-88.8 1140.93,-84.8 1006.07,-84.8 1006.07,-48.8 1167.93,-48.8 1167.93,-84.8"/>
<text text-anchor="middle" x="1087" y="-62.6" font-family="Times,serif" font-size="14.00">EmployeeRoutingModule</text>
</g>
<!-- EmployeeRoutingModule&#45;&gt;EmployeeModule -->
<g id="edge3" class="edge">
<title>EmployeeRoutingModule&#45;&gt;EmployeeModule</title>
<path fill="none" stroke="black" d="M1087,-85.08C1087,-106.12 1087,-137.8 1087,-137.8 1087,-137.8 690.42,-137.8 690.42,-137.8"/>
<polygon fill="black" stroke="black" points="690.42,-134.3 680.42,-137.8 690.42,-141.3 690.42,-134.3"/>
</g>
<!-- SharedModule -->
<g id="node5" class="node">
<title>SharedModule</title>
<polygon fill="#8dd3c7" stroke="black" points="988.43,-84.8 985.43,-88.8 964.43,-88.8 961.43,-84.8 889.57,-84.8 889.57,-48.8 988.43,-48.8 988.43,-84.8"/>
<text text-anchor="middle" x="939" y="-62.6" font-family="Times,serif" font-size="14.00">SharedModule</text>
</g>
<!-- SharedModule&#45;&gt;EmployeeModule -->
<g id="edge4" class="edge">
<title>SharedModule&#45;&gt;EmployeeModule</title>
<path fill="none" stroke="black" d="M939,-84.82C939,-102.17 939,-125.8 939,-125.8 939,-125.8 690.51,-125.8 690.51,-125.8"/>
<polygon fill="black" stroke="black" points="690.51,-122.3 680.51,-125.8 690.51,-129.3 690.51,-122.3"/>
</g>
<!-- EmployeeTaskDataService -->
<g id="node6" class="node">
<title>EmployeeTaskDataService</title>
<ellipse fill="#fdb462" stroke="black" cx="750" cy="-66.8" rx="116.29" ry="18"/>
<text text-anchor="middle" x="750" y="-62.6" font-family="Times,serif" font-size="14.00">EmployeeTaskDataService</text>
</g>
<!-- EmployeeTaskDataService&#45;&gt;EmployeeModule -->
<g id="edge5" class="edge">
<title>EmployeeTaskDataService&#45;&gt;EmployeeModule</title>
<path fill="none" stroke="black" d="M657,-77.83C657,-77.83 657,-103.58 657,-103.58"/>
<polygon fill="black" stroke="black" points="653.51,-103.58 657,-113.58 660.51,-103.58 653.51,-103.58"/>
</g>
<!-- EmployeeTaskEntityService -->
<g id="node7" class="node">
<title>EmployeeTaskEntityService</title>
<ellipse fill="#fdb462" stroke="black" cx="494" cy="-66.8" rx="121.54" ry="18"/>
<text text-anchor="middle" x="494" y="-62.6" font-family="Times,serif" font-size="14.00">EmployeeTaskEntityService</text>
</g>
<!-- EmployeeTaskEntityService&#45;&gt;EmployeeModule -->
<g id="edge6" class="edge">
<title>EmployeeTaskEntityService&#45;&gt;EmployeeModule</title>
<path fill="none" stroke="black" d="M589.68,-78.12C589.68,-78.12 589.68,-103.74 589.68,-103.74"/>
<polygon fill="black" stroke="black" points="586.18,-103.74 589.68,-113.74 593.18,-103.74 586.18,-103.74"/>
</g>
</g>
</svg>
