<?xml version="1.0" encoding="UTF-8" standalone="no"?>
<!DOCTYPE svg PUBLIC "-//W3C//DTD SVG 1.1//EN"
 "http://www.w3.org/Graphics/SVG/1.1/DTD/svg11.dtd">
<!-- Generated by graphviz version 3.0.0 (20220226.1711)
 -->
<!-- Title: dependencies Pages: 1 -->
<svg width="1926pt" height="174pt"
 viewBox="0.00 0.00 1926.00 173.80" xmlns="http://www.w3.org/2000/svg" xmlns:xlink="http://www.w3.org/1999/xlink">
<g id="graph0" class="graph" transform="scale(1 1) rotate(0) translate(4 169.8)">
<title>dependencies</title>
<polygon fill="white" stroke="transparent" points="-4,4 -4,-169.8 1922,-169.8 1922,4 -4,4"/>
<text text-anchor="middle" x="959" y="-8.2" font-family="sans-serif" font-size="14.00">dependencies</text>
<g id="clust1" class="cluster">
<title>cluster_ViewModule</title>
<polygon fill="none" stroke="black" stroke-dasharray="1,5" points="8,-32.8 8,-157.8 1910,-157.8 1910,-32.8 8,-32.8"/>
</g>
<g id="clust2" class="cluster">
<title>cluster_ViewModule_declarations</title>
<polygon fill="none" stroke="black" points="1653,-40.8 1653,-92.8 1902,-92.8 1902,-40.8 1653,-40.8"/>
</g>
<g id="clust5" class="cluster">
<title>cluster_ViewModule_imports</title>
<polygon fill="none" stroke="black" points="1378,-40.8 1378,-92.8 1645,-92.8 1645,-40.8 1378,-40.8"/>
</g>
<g id="clust8" class="cluster">
<title>cluster_ViewModule_providers</title>
<polygon fill="none" stroke="black" points="16,-40.8 16,-92.8 1370,-92.8 1370,-40.8 16,-40.8"/>
</g>
<!-- FilterStatePipe -->
<g id="node1" class="node">
<title>FilterStatePipe</title>
<polygon fill="#ffffb3" stroke="black" points="1893.71,-84.8 1794.29,-84.8 1794.29,-48.8 1893.71,-48.8 1893.71,-84.8"/>
<text text-anchor="middle" x="1844" y="-62.6" font-family="Times,serif" font-size="14.00">FilterStatePipe</text>
</g>
<!-- ViewModule -->
<g id="node3" class="node">
<title>ViewModule</title>
<polygon fill="#8dd3c7" stroke="black" points="1162.88,-149.8 1159.88,-153.8 1138.88,-153.8 1135.88,-149.8 1073.12,-149.8 1073.12,-113.8 1162.88,-113.8 1162.88,-149.8"/>
<text text-anchor="middle" x="1118" y="-127.6" font-family="Times,serif" font-size="14.00">ViewModule</text>
</g>
<!-- FilterStatePipe&#45;&gt;ViewModule -->
<g id="edge1" class="edge">
<title>FilterStatePipe&#45;&gt;ViewModule</title>
<path fill="none" stroke="black" d="M1844,-84.81C1844,-107.29 1844,-142.8 1844,-142.8 1844,-142.8 1173.14,-142.8 1173.14,-142.8"/>
<polygon fill="black" stroke="black" points="1173.14,-139.3 1163.14,-142.8 1173.14,-146.3 1173.14,-139.3"/>
</g>
<!-- HomeComponent -->
<g id="node2" class="node">
<title>HomeComponent</title>
<polygon fill="#ffffb3" stroke="black" points="1776.55,-84.8 1661.45,-84.8 1661.45,-48.8 1776.55,-48.8 1776.55,-84.8"/>
<text text-anchor="middle" x="1719" y="-62.6" font-family="Times,serif" font-size="14.00">HomeComponent</text>
</g>
<!-- HomeComponent&#45;&gt;ViewModule -->
<g id="edge2" class="edge">
<title>HomeComponent&#45;&gt;ViewModule</title>
<path fill="none" stroke="black" d="M1719,-84.93C1719,-105.37 1719,-135.8 1719,-135.8 1719,-135.8 1173.17,-135.8 1173.17,-135.8"/>
<polygon fill="black" stroke="black" points="1173.17,-132.3 1163.17,-135.8 1173.17,-139.3 1173.17,-132.3"/>
</g>
<!-- SharedModule -->
<g id="node4" class="node">
<title>SharedModule</title>
<polygon fill="#8dd3c7" stroke="black" points="1637.43,-84.8 1634.43,-88.8 1613.43,-88.8 1610.43,-84.8 1538.57,-84.8 1538.57,-48.8 1637.43,-48.8 1637.43,-84.8"/>
<text text-anchor="middle" x="1588" y="-62.6" font-family="Times,serif" font-size="14.00">SharedModule</text>
</g>
<!-- SharedModule&#45;&gt;ViewModule -->
<g id="edge3" class="edge">
<title>SharedModule&#45;&gt;ViewModule</title>
<path fill="none" stroke="black" d="M1588,-85.07C1588,-103.36 1588,-128.8 1588,-128.8 1588,-128.8 1173.07,-128.8 1173.07,-128.8"/>
<polygon fill="black" stroke="black" points="1173.07,-125.3 1163.07,-128.8 1173.07,-132.3 1173.07,-125.3"/>
</g>
<!-- ViewRoutingModule -->
<g id="node5" class="node">
<title>ViewRoutingModule</title>
<polygon fill="#8dd3c7" stroke="black" points="1520.49,-84.8 1517.49,-88.8 1496.49,-88.8 1493.49,-84.8 1385.51,-84.8 1385.51,-48.8 1520.49,-48.8 1520.49,-84.8"/>
<text text-anchor="middle" x="1453" y="-62.6" font-family="Times,serif" font-size="14.00">ViewRoutingModule</text>
</g>
<!-- ViewRoutingModule&#45;&gt;ViewModule -->
<g id="edge4" class="edge">
<title>ViewRoutingModule&#45;&gt;ViewModule</title>
<path fill="none" stroke="black" d="M1453,-84.81C1453,-100.85 1453,-121.8 1453,-121.8 1453,-121.8 1173.18,-121.8 1173.18,-121.8"/>
<polygon fill="black" stroke="black" points="1173.18,-118.3 1163.18,-121.8 1173.18,-125.3 1173.18,-118.3"/>
</g>
<!-- EmployeeTaskDataService -->
<g id="node6" class="node">
<title>EmployeeTaskDataService</title>
<ellipse fill="#fdb462" stroke="black" cx="1246" cy="-66.8" rx="116.29" ry="18"/>
<text text-anchor="middle" x="1246" y="-62.6" font-family="Times,serif" font-size="14.00">EmployeeTaskDataService</text>
</g>
<!-- EmployeeTaskDataService&#45;&gt;ViewModule -->
<g id="edge5" class="edge">
<title>EmployeeTaskDataService&#45;&gt;ViewModule</title>
<path fill="none" stroke="black" d="M1146.4,-76.11C1146.4,-76.11 1146.4,-103.65 1146.4,-103.65"/>
<polygon fill="black" stroke="black" points="1142.9,-103.65 1146.4,-113.65 1149.9,-103.65 1142.9,-103.65"/>
</g>
<!-- EmployeeTaskEntityService -->
<g id="node7" class="node">
<title>EmployeeTaskEntityService</title>
<ellipse fill="#fdb462" stroke="black" cx="990" cy="-66.8" rx="121.54" ry="18"/>
<text text-anchor="middle" x="990" y="-62.6" font-family="Times,serif" font-size="14.00">EmployeeTaskEntityService</text>
</g>
<!-- EmployeeTaskEntityService&#45;&gt;ViewModule -->
<g id="edge6" class="edge">
<title>EmployeeTaskEntityService&#45;&gt;ViewModule</title>
<path fill="none" stroke="black" d="M1092.29,-76.67C1092.29,-76.67 1092.29,-103.71 1092.29,-103.71"/>
<polygon fill="black" stroke="black" points="1088.79,-103.71 1092.29,-113.71 1095.79,-103.71 1088.79,-103.71"/>
</g>
<!-- ManagerTaskDataService -->
<g id="node8" class="node">
<title>ManagerTaskDataService</title>
<ellipse fill="#fdb462" stroke="black" cx="739" cy="-66.8" rx="111.12" ry="18"/>
<text text-anchor="middle" x="739" y="-62.6" font-family="Times,serif" font-size="14.00">ManagerTaskDataService</text>
</g>
<!-- ManagerTaskDataService&#45;&gt;ViewModule -->
<g id="edge7" class="edge">
<title>ManagerTaskDataService&#45;&gt;ViewModule</title>
<path fill="none" stroke="black" d="M739,-84.81C739,-100.85 739,-121.8 739,-121.8 739,-121.8 1063.04,-121.8 1063.04,-121.8"/>
<polygon fill="black" stroke="black" points="1063.04,-125.3 1073.04,-121.8 1063.04,-118.3 1063.04,-125.3"/>
</g>
<!-- ManagerTaskEntityService -->
<g id="node9" class="node">
<title>ManagerTaskEntityService</title>
<ellipse fill="#fdb462" stroke="black" cx="493" cy="-66.8" rx="116.88" ry="18"/>
<text text-anchor="middle" x="493" y="-62.6" font-family="Times,serif" font-size="14.00">ManagerTaskEntityService</text>
</g>
<!-- ManagerTaskEntityService&#45;&gt;ViewModule -->
<g id="edge8" class="edge">
<title>ManagerTaskEntityService&#45;&gt;ViewModule</title>
<path fill="none" stroke="black" d="M493,-85.07C493,-103.36 493,-128.8 493,-128.8 493,-128.8 1063.05,-128.8 1063.05,-128.8"/>
<polygon fill="black" stroke="black" points="1063.05,-132.3 1073.05,-128.8 1063.05,-125.3 1063.05,-132.3"/>
</g>
<!-- UserDataService -->
<g id="node10" class="node">
<title>UserDataService</title>
<ellipse fill="#fdb462" stroke="black" cx="282" cy="-66.8" rx="76.41" ry="18"/>
<text text-anchor="middle" x="282" y="-62.6" font-family="Times,serif" font-size="14.00">UserDataService</text>
</g>
<!-- UserDataService&#45;&gt;ViewModule -->
<g id="edge9" class="edge">
<title>UserDataService&#45;&gt;ViewModule</title>
<path fill="none" stroke="black" d="M282,-84.93C282,-105.37 282,-135.8 282,-135.8 282,-135.8 1063.05,-135.8 1063.05,-135.8"/>
<polygon fill="black" stroke="black" points="1063.05,-139.3 1073.05,-135.8 1063.05,-132.3 1063.05,-139.3"/>
</g>
<!-- UserEntityService -->
<g id="node11" class="node">
<title>UserEntityService</title>
<ellipse fill="#fdb462" stroke="black" cx="106" cy="-66.8" rx="81.66" ry="18"/>
<text text-anchor="middle" x="106" y="-62.6" font-family="Times,serif" font-size="14.00">UserEntityService</text>
</g>
<!-- UserEntityService&#45;&gt;ViewModule -->
<g id="edge10" class="edge">
<title>UserEntityService&#45;&gt;ViewModule</title>
<path fill="none" stroke="black" d="M106,-84.81C106,-107.29 106,-142.8 106,-142.8 106,-142.8 1062.88,-142.8 1062.88,-142.8"/>
<polygon fill="black" stroke="black" points="1062.88,-146.3 1072.88,-142.8 1062.88,-139.3 1062.88,-146.3"/>
</g>
</g>
</svg>
