<?xml version="1.0" encoding="UTF-8" standalone="no"?>
<!DOCTYPE svg PUBLIC "-//W3C//DTD SVG 1.1//EN"
 "http://www.w3.org/Graphics/SVG/1.1/DTD/svg11.dtd">
<!-- Generated by graphviz version 3.0.0 (20220226.1711)
 -->
<!-- Title: dependencies Pages: 1 -->
<svg width="330pt" height="174pt"
 viewBox="0.00 0.00 330.00 173.80" xmlns="http://www.w3.org/2000/svg" xmlns:xlink="http://www.w3.org/1999/xlink">
<g id="graph0" class="graph" transform="scale(1 1) rotate(0) translate(4 169.8)">
<title>dependencies</title>
<polygon fill="white" stroke="transparent" points="-4,4 -4,-169.8 326,-169.8 326,4 -4,4"/>
<text text-anchor="middle" x="161" y="-8.2" font-family="sans-serif" font-size="14.00">dependencies</text>
<g id="clust1" class="cluster">
<title>cluster_ViewModule</title>
<polygon fill="none" stroke="black" stroke-dasharray="1,5" points="8,-32.8 8,-157.8 314,-157.8 314,-32.8 8,-32.8"/>
</g>
<g id="clust2" class="cluster">
<title>cluster_ViewModule_declarations</title>
<polygon fill="none" stroke="black" points="174,-40.8 174,-92.8 306,-92.8 306,-40.8 174,-40.8"/>
</g>
<g id="clust4" class="cluster">
<title>cluster_ViewModule_imports</title>
<polygon fill="none" stroke="black" points="16,-40.8 16,-92.8 166,-92.8 166,-40.8 16,-40.8"/>
</g>
<!-- HomeComponent -->
<g id="node1" class="node">
<title>HomeComponent</title>
<polygon fill="#ffffb3" stroke="black" points="297.55,-84.8 182.45,-84.8 182.45,-48.8 297.55,-48.8 297.55,-84.8"/>
<text text-anchor="middle" x="240" y="-62.6" font-family="Times,serif" font-size="14.00">HomeComponent</text>
</g>
<!-- ViewModule -->
<g id="node2" class="node">
<title>ViewModule</title>
<polygon fill="#8dd3c7" stroke="black" points="209.88,-149.8 206.88,-153.8 185.88,-153.8 182.88,-149.8 120.12,-149.8 120.12,-113.8 209.88,-113.8 209.88,-149.8"/>
<text text-anchor="middle" x="165" y="-127.6" font-family="Times,serif" font-size="14.00">ViewModule</text>
</g>
<!-- HomeComponent&#45;&gt;ViewModule -->
<g id="edge1" class="edge">
<title>HomeComponent&#45;&gt;ViewModule</title>
<path fill="none" stroke="black" d="M196.08,-84.91C196.08,-84.91 196.08,-103.79 196.08,-103.79"/>
<polygon fill="black" stroke="black" points="192.58,-103.79 196.08,-113.79 199.58,-103.79 192.58,-103.79"/>
</g>
<!-- ViewRoutingModule -->
<g id="node3" class="node">
<title>ViewRoutingModule</title>
<polygon fill="#8dd3c7" stroke="black" points="158.49,-84.8 155.49,-88.8 134.49,-88.8 131.49,-84.8 23.51,-84.8 23.51,-48.8 158.49,-48.8 158.49,-84.8"/>
<text text-anchor="middle" x="91" y="-62.6" font-family="Times,serif" font-size="14.00">ViewRoutingModule</text>
</g>
<!-- ViewRoutingModule&#45;&gt;ViewModule -->
<g id="edge2" class="edge">
<title>ViewRoutingModule&#45;&gt;ViewModule</title>
<path fill="none" stroke="black" d="M139.28,-84.91C139.28,-84.91 139.28,-103.79 139.28,-103.79"/>
<polygon fill="black" stroke="black" points="135.78,-103.79 139.28,-113.79 142.78,-103.79 135.78,-103.79"/>
</g>
</g>
</svg>
