<?xml version="1.0" encoding="UTF-8" standalone="no"?>
<!DOCTYPE svg PUBLIC "-//W3C//DTD SVG 1.1//EN"
 "http://www.w3.org/Graphics/SVG/1.1/DTD/svg11.dtd">
<!-- Generated by graphviz version 3.0.0 (20220226.1711)
 -->
<!-- Title: dependencies Pages: 1 -->
<svg width="1337pt" height="174pt"
 viewBox="0.00 0.00 1337.00 173.80" xmlns="http://www.w3.org/2000/svg" xmlns:xlink="http://www.w3.org/1999/xlink">
<g id="graph0" class="graph" transform="scale(1 1) rotate(0) translate(4 169.8)">
<title>dependencies</title>
<polygon fill="white" stroke="transparent" points="-4,4 -4,-169.8 1333,-169.8 1333,4 -4,4"/>
<text text-anchor="middle" x="664.5" y="-8.2" font-family="sans-serif" font-size="14.00">dependencies</text>
<g id="clust1" class="cluster">
<title>cluster_AdminModule</title>
<polygon fill="none" stroke="black" stroke-dasharray="1,5" points="8,-32.8 8,-157.8 1321,-157.8 1321,-32.8 8,-32.8"/>
</g>
<g id="clust2" class="cluster">
<title>cluster_AdminModule_declarations</title>
<polygon fill="none" stroke="black" points="300,-40.8 300,-92.8 1313,-92.8 1313,-40.8 300,-40.8"/>
</g>
<g id="clust9" class="cluster">
<title>cluster_AdminModule_imports</title>
<polygon fill="none" stroke="black" points="16,-40.8 16,-92.8 292,-92.8 292,-40.8 16,-40.8"/>
</g>
<!-- DeleteModalComponent -->
<g id="node1" class="node">
<title>DeleteModalComponent</title>
<polygon fill="#ffffb3" stroke="black" points="1305.41,-84.8 1150.59,-84.8 1150.59,-48.8 1305.41,-48.8 1305.41,-84.8"/>
<text text-anchor="middle" x="1228" y="-62.6" font-family="Times,serif" font-size="14.00">DeleteModalComponent</text>
</g>
<!-- AdminModule -->
<g id="node7" class="node">
<title>AdminModule</title>
<polygon fill="#8dd3c7" stroke="black" points="678.44,-149.8 675.44,-153.8 654.44,-153.8 651.44,-149.8 579.56,-149.8 579.56,-113.8 678.44,-113.8 678.44,-149.8"/>
<text text-anchor="middle" x="629" y="-127.6" font-family="Times,serif" font-size="14.00">AdminModule</text>
</g>
<!-- DeleteModalComponent&#45;&gt;AdminModule -->
<g id="edge1" class="edge">
<title>DeleteModalComponent&#45;&gt;AdminModule</title>
<path fill="none" stroke="black" d="M1228,-85.09C1228,-107.01 1228,-140.8 1228,-140.8 1228,-140.8 688.27,-140.8 688.27,-140.8"/>
<polygon fill="black" stroke="black" points="688.27,-137.3 678.27,-140.8 688.27,-144.3 688.27,-137.3"/>
</g>
<!-- ManagementTableComponent -->
<g id="node2" class="node">
<title>ManagementTableComponent</title>
<polygon fill="#ffffb3" stroke="black" points="1133.28,-84.8 946.72,-84.8 946.72,-48.8 1133.28,-48.8 1133.28,-84.8"/>
<text text-anchor="middle" x="1040" y="-62.6" font-family="Times,serif" font-size="14.00">ManagementTableComponent</text>
</g>
<!-- ManagementTableComponent&#45;&gt;AdminModule -->
<g id="edge2" class="edge">
<title>ManagementTableComponent&#45;&gt;AdminModule</title>
<path fill="none" stroke="black" d="M1040,-84.91C1040,-104.14 1040,-131.8 1040,-131.8 1040,-131.8 688.58,-131.8 688.58,-131.8"/>
<polygon fill="black" stroke="black" points="688.58,-128.3 678.58,-131.8 688.58,-135.3 688.58,-128.3"/>
</g>
<!-- RegisterUserComponent -->
<g id="node3" class="node">
<title>RegisterUserComponent</title>
<polygon fill="#ffffb3" stroke="black" points="929.42,-84.8 774.58,-84.8 774.58,-48.8 929.42,-48.8 929.42,-84.8"/>
<text text-anchor="middle" x="852" y="-62.6" font-family="Times,serif" font-size="14.00">RegisterUserComponent</text>
</g>
<!-- RegisterUserComponent&#45;&gt;AdminModule -->
<g id="edge3" class="edge">
<title>RegisterUserComponent&#45;&gt;AdminModule</title>
<path fill="none" stroke="black" d="M852,-84.83C852,-101.2 852,-122.8 852,-122.8 852,-122.8 688.49,-122.8 688.49,-122.8"/>
<polygon fill="black" stroke="black" points="688.49,-119.3 678.49,-122.8 688.49,-126.3 688.49,-119.3"/>
</g>
<!-- SearchFilterPipe -->
<g id="node4" class="node">
<title>SearchFilterPipe</title>
<polygon fill="#ffffb3" stroke="black" points="756.81,-84.8 647.19,-84.8 647.19,-48.8 756.81,-48.8 756.81,-84.8"/>
<text text-anchor="middle" x="702" y="-62.6" font-family="Times,serif" font-size="14.00">SearchFilterPipe</text>
</g>
<!-- SearchFilterPipe&#45;&gt;AdminModule -->
<g id="edge4" class="edge">
<title>SearchFilterPipe&#45;&gt;AdminModule</title>
<path fill="none" stroke="black" d="M662.78,-84.91C662.78,-84.91 662.78,-103.79 662.78,-103.79"/>
<polygon fill="black" stroke="black" points="659.28,-103.79 662.78,-113.79 666.28,-103.79 659.28,-103.79"/>
</g>
<!-- UpdateInfoComponent -->
<g id="node5" class="node">
<title>UpdateInfoComponent</title>
<polygon fill="#ffffb3" stroke="black" points="629.58,-84.8 484.42,-84.8 484.42,-48.8 629.58,-48.8 629.58,-84.8"/>
<text text-anchor="middle" x="557" y="-62.6" font-family="Times,serif" font-size="14.00">UpdateInfoComponent</text>
</g>
<!-- UpdateInfoComponent&#45;&gt;AdminModule -->
<g id="edge5" class="edge">
<title>UpdateInfoComponent&#45;&gt;AdminModule</title>
<path fill="none" stroke="black" d="M604.66,-84.91C604.66,-84.91 604.66,-103.79 604.66,-103.79"/>
<polygon fill="black" stroke="black" points="601.16,-103.79 604.66,-113.79 608.16,-103.79 601.16,-103.79"/>
</g>
<!-- UpdateModalComponent -->
<g id="node6" class="node">
<title>UpdateModalComponent</title>
<polygon fill="#ffffb3" stroke="black" points="466.31,-84.8 307.69,-84.8 307.69,-48.8 466.31,-48.8 466.31,-84.8"/>
<text text-anchor="middle" x="387" y="-62.6" font-family="Times,serif" font-size="14.00">UpdateModalComponent</text>
</g>
<!-- UpdateModalComponent&#45;&gt;AdminModule -->
<g id="edge6" class="edge">
<title>UpdateModalComponent&#45;&gt;AdminModule</title>
<path fill="none" stroke="black" d="M387,-84.83C387,-101.2 387,-122.8 387,-122.8 387,-122.8 569.74,-122.8 569.74,-122.8"/>
<polygon fill="black" stroke="black" points="569.74,-126.3 579.74,-122.8 569.74,-119.3 569.74,-126.3"/>
</g>
<!-- AdminRoutingModule -->
<g id="node8" class="node">
<title>AdminRoutingModule</title>
<polygon fill="#8dd3c7" stroke="black" points="283.56,-84.8 280.56,-88.8 259.56,-88.8 256.56,-84.8 140.44,-84.8 140.44,-48.8 283.56,-48.8 283.56,-84.8"/>
<text text-anchor="middle" x="212" y="-62.6" font-family="Times,serif" font-size="14.00">AdminRoutingModule</text>
</g>
<!-- AdminRoutingModule&#45;&gt;AdminModule -->
<g id="edge7" class="edge">
<title>AdminRoutingModule&#45;&gt;AdminModule</title>
<path fill="none" stroke="black" d="M212,-84.91C212,-104.14 212,-131.8 212,-131.8 212,-131.8 569.53,-131.8 569.53,-131.8"/>
<polygon fill="black" stroke="black" points="569.53,-135.3 579.53,-131.8 569.53,-128.3 569.53,-135.3"/>
</g>
<!-- SharedModule -->
<g id="node9" class="node">
<title>SharedModule</title>
<polygon fill="#8dd3c7" stroke="black" points="122.43,-84.8 119.43,-88.8 98.43,-88.8 95.43,-84.8 23.57,-84.8 23.57,-48.8 122.43,-48.8 122.43,-84.8"/>
<text text-anchor="middle" x="73" y="-62.6" font-family="Times,serif" font-size="14.00">SharedModule</text>
</g>
<!-- SharedModule&#45;&gt;AdminModule -->
<g id="edge8" class="edge">
<title>SharedModule&#45;&gt;AdminModule</title>
<path fill="none" stroke="black" d="M73,-85.09C73,-107.01 73,-140.8 73,-140.8 73,-140.8 569.66,-140.8 569.66,-140.8"/>
<polygon fill="black" stroke="black" points="569.66,-144.3 579.66,-140.8 569.66,-137.3 569.66,-144.3"/>
</g>
</g>
</svg>
