<?xml version="1.0" encoding="UTF-8" standalone="no"?>
<!DOCTYPE svg PUBLIC "-//W3C//DTD SVG 1.1//EN"
 "http://www.w3.org/Graphics/SVG/1.1/DTD/svg11.dtd">
<!-- Generated by graphviz version 3.0.0 (20220226.1711)
 -->
<!-- Title: dependencies Pages: 1 -->
<svg width="1017pt" height="174pt"
 viewBox="0.00 0.00 1017.00 173.80" xmlns="http://www.w3.org/2000/svg" xmlns:xlink="http://www.w3.org/1999/xlink">
<g id="graph0" class="graph" transform="scale(1 1) rotate(0) translate(4 169.8)">
<title>dependencies</title>
<polygon fill="white" stroke="transparent" points="-4,4 -4,-169.8 1013,-169.8 1013,4 -4,4"/>
<text text-anchor="middle" x="504.5" y="-8.2" font-family="sans-serif" font-size="14.00">dependencies</text>
<g id="clust1" class="cluster">
<title>cluster_TaskModule</title>
<polygon fill="none" stroke="black" stroke-dasharray="1,5" points="8,-32.8 8,-157.8 1001,-157.8 1001,-32.8 8,-32.8"/>
</g>
<g id="clust5" class="cluster">
<title>cluster_TaskModule_imports</title>
<polygon fill="none" stroke="black" points="729,-40.8 729,-92.8 993,-92.8 993,-40.8 729,-40.8"/>
</g>
<g id="clust8" class="cluster">
<title>cluster_TaskModule_providers</title>
<polygon fill="none" stroke="black" points="369,-40.8 369,-92.8 721,-92.8 721,-40.8 369,-40.8"/>
</g>
<g id="clust2" class="cluster">
<title>cluster_TaskModule_declarations</title>
<polygon fill="none" stroke="black" points="16,-40.8 16,-92.8 361,-92.8 361,-40.8 16,-40.8"/>
</g>
<!-- EventCalendarComponent -->
<g id="node1" class="node">
<title>EventCalendarComponent</title>
<polygon fill="#ffffb3" stroke="black" points="353.02,-84.8 188.98,-84.8 188.98,-48.8 353.02,-48.8 353.02,-84.8"/>
<text text-anchor="middle" x="271" y="-62.6" font-family="Times,serif" font-size="14.00">EventCalendarComponent</text>
</g>
<!-- TaskModule -->
<g id="node3" class="node">
<title>TaskModule</title>
<polygon fill="#8dd3c7" stroke="black" points="590.27,-149.8 587.27,-153.8 566.27,-153.8 563.27,-149.8 503.73,-149.8 503.73,-113.8 590.27,-113.8 590.27,-149.8"/>
<text text-anchor="middle" x="547" y="-127.6" font-family="Times,serif" font-size="14.00">TaskModule</text>
</g>
<!-- EventCalendarComponent&#45;&gt;TaskModule -->
<g id="edge1" class="edge">
<title>EventCalendarComponent&#45;&gt;TaskModule</title>
<path fill="none" stroke="black" d="M271,-84.82C271,-102.17 271,-125.8 271,-125.8 271,-125.8 493.57,-125.8 493.57,-125.8"/>
<polygon fill="black" stroke="black" points="493.57,-129.3 503.57,-125.8 493.57,-122.3 493.57,-129.3"/>
</g>
<!-- TaskDialogComponent -->
<g id="node2" class="node">
<title>TaskDialogComponent</title>
<polygon fill="#ffffb3" stroke="black" points="170.15,-84.8 23.85,-84.8 23.85,-48.8 170.15,-48.8 170.15,-84.8"/>
<text text-anchor="middle" x="97" y="-62.6" font-family="Times,serif" font-size="14.00">TaskDialogComponent</text>
</g>
<!-- TaskDialogComponent&#45;&gt;TaskModule -->
<g id="edge2" class="edge">
<title>TaskDialogComponent&#45;&gt;TaskModule</title>
<path fill="none" stroke="black" d="M97,-85.08C97,-106.12 97,-137.8 97,-137.8 97,-137.8 493.44,-137.8 493.44,-137.8"/>
<polygon fill="black" stroke="black" points="493.44,-141.3 503.44,-137.8 493.44,-134.3 493.44,-141.3"/>
</g>
<!-- SharedModule -->
<g id="node4" class="node">
<title>SharedModule</title>
<polygon fill="#8dd3c7" stroke="black" points="985.43,-84.8 982.43,-88.8 961.43,-88.8 958.43,-84.8 886.57,-84.8 886.57,-48.8 985.43,-48.8 985.43,-84.8"/>
<text text-anchor="middle" x="936" y="-62.6" font-family="Times,serif" font-size="14.00">SharedModule</text>
</g>
<!-- SharedModule&#45;&gt;TaskModule -->
<g id="edge3" class="edge">
<title>SharedModule&#45;&gt;TaskModule</title>
<path fill="none" stroke="black" d="M936,-85.08C936,-106.12 936,-137.8 936,-137.8 936,-137.8 600.49,-137.8 600.49,-137.8"/>
<polygon fill="black" stroke="black" points="600.49,-134.3 590.49,-137.8 600.49,-141.3 600.49,-134.3"/>
</g>
<!-- TaskRoutingModule -->
<g id="node5" class="node">
<title>TaskRoutingModule</title>
<polygon fill="#8dd3c7" stroke="black" points="868.88,-84.8 865.88,-88.8 844.88,-88.8 841.88,-84.8 737.12,-84.8 737.12,-48.8 868.88,-48.8 868.88,-84.8"/>
<text text-anchor="middle" x="803" y="-62.6" font-family="Times,serif" font-size="14.00">TaskRoutingModule</text>
</g>
<!-- TaskRoutingModule&#45;&gt;TaskModule -->
<g id="edge4" class="edge">
<title>TaskRoutingModule&#45;&gt;TaskModule</title>
<path fill="none" stroke="black" d="M803,-84.82C803,-102.17 803,-125.8 803,-125.8 803,-125.8 600.43,-125.8 600.43,-125.8"/>
<polygon fill="black" stroke="black" points="600.43,-122.3 590.43,-125.8 600.43,-129.3 600.43,-122.3"/>
</g>
<!-- TaskDataService -->
<g id="node6" class="node">
<title>TaskDataService</title>
<ellipse fill="#fdb462" stroke="black" cx="636" cy="-66.8" rx="76.99" ry="18"/>
<text text-anchor="middle" x="636" y="-62.6" font-family="Times,serif" font-size="14.00">TaskDataService</text>
</g>
<!-- TaskDataService&#45;&gt;TaskModule -->
<g id="edge5" class="edge">
<title>TaskDataService&#45;&gt;TaskModule</title>
<path fill="none" stroke="black" d="M574.69,-77.83C574.69,-77.83 574.69,-103.58 574.69,-103.58"/>
<polygon fill="black" stroke="black" points="571.19,-103.58 574.69,-113.58 578.19,-103.58 571.19,-103.58"/>
</g>
<!-- TaskEntityService -->
<g id="node7" class="node">
<title>TaskEntityService</title>
<ellipse fill="#fdb462" stroke="black" cx="459" cy="-66.8" rx="82.24" ry="18"/>
<text text-anchor="middle" x="459" y="-62.6" font-family="Times,serif" font-size="14.00">TaskEntityService</text>
</g>
<!-- TaskEntityService&#45;&gt;TaskModule -->
<g id="edge6" class="edge">
<title>TaskEntityService&#45;&gt;TaskModule</title>
<path fill="none" stroke="black" d="M522.49,-78.42C522.49,-78.42 522.49,-103.65 522.49,-103.65"/>
<polygon fill="black" stroke="black" points="518.99,-103.65 522.49,-113.65 525.99,-103.65 518.99,-103.65"/>
</g>
</g>
</svg>
