<?xml version="1.0" encoding="UTF-8" standalone="no"?>
<!DOCTYPE svg PUBLIC "-//W3C//DTD SVG 1.1//EN"
 "http://www.w3.org/Graphics/SVG/1.1/DTD/svg11.dtd">
<!-- Generated by graphviz version 3.0.0 (20220226.1711)
 -->
<!-- Title: dependencies Pages: 1 -->
<svg width="826pt" height="247pt"
 viewBox="0.00 0.00 826.00 246.80" xmlns="http://www.w3.org/2000/svg" xmlns:xlink="http://www.w3.org/1999/xlink">
<g id="graph0" class="graph" transform="scale(1 1) rotate(0) translate(4 242.8)">
<title>dependencies</title>
<polygon fill="white" stroke="transparent" points="-4,4 -4,-242.8 822,-242.8 822,4 -4,4"/>
<text text-anchor="middle" x="409" y="-8.2" font-family="sans-serif" font-size="14.00">dependencies</text>
<g id="clust1" class="cluster">
<title>cluster_AppModule</title>
<polygon fill="none" stroke="black" stroke-dasharray="1,5" points="8,-32.8 8,-230.8 810,-230.8 810,-32.8 8,-32.8"/>
</g>
<g id="clust2" class="cluster">
<title>cluster_AppModule_declarations</title>
<polygon fill="none" stroke="black" points="384,-40.8 384,-92.8 802,-92.8 802,-40.8 384,-40.8"/>
</g>
<g id="clust6" class="cluster">
<title>cluster_AppModule_imports</title>
<polygon fill="none" stroke="black" points="16,-40.8 16,-92.8 376,-92.8 376,-40.8 16,-40.8"/>
</g>
<g id="clust8" class="cluster">
<title>cluster_AppModule_bootstrap</title>
<polygon fill="none" stroke="black" points="329,-170.8 329,-222.8 453,-222.8 453,-170.8 329,-170.8"/>
</g>
<!-- AppComponent -->
<g id="node1" class="node">
<title>AppComponent</title>
<polygon fill="#ffffb3" stroke="black" points="793.94,-84.8 688.06,-84.8 688.06,-48.8 793.94,-48.8 793.94,-84.8"/>
<text text-anchor="middle" x="741" y="-62.6" font-family="Times,serif" font-size="14.00">AppComponent</text>
</g>
<!-- AppModule -->
<g id="node4" class="node">
<title>AppModule</title>
<polygon fill="#8dd3c7" stroke="black" points="432.66,-149.8 429.66,-153.8 408.66,-153.8 405.66,-149.8 349.34,-149.8 349.34,-113.8 432.66,-113.8 432.66,-149.8"/>
<text text-anchor="middle" x="391" y="-127.6" font-family="Times,serif" font-size="14.00">AppModule</text>
</g>
<!-- AppComponent&#45;&gt;AppModule -->
<g id="edge1" class="edge">
<title>AppComponent&#45;&gt;AppModule</title>
<path fill="none" stroke="black" d="M741,-85.08C741,-106.12 741,-137.8 741,-137.8 741,-137.8 442.87,-137.8 442.87,-137.8"/>
<polygon fill="black" stroke="black" points="442.87,-134.3 432.87,-137.8 442.87,-141.3 442.87,-134.3"/>
</g>
<!-- NavbarComponent -->
<g id="node2" class="node">
<title>NavbarComponent</title>
<polygon fill="#ffffb3" stroke="black" points="670.03,-84.8 547.97,-84.8 547.97,-48.8 670.03,-48.8 670.03,-84.8"/>
<text text-anchor="middle" x="609" y="-62.6" font-family="Times,serif" font-size="14.00">NavbarComponent</text>
</g>
<!-- NavbarComponent&#45;&gt;AppModule -->
<g id="edge2" class="edge">
<title>NavbarComponent&#45;&gt;AppModule</title>
<path fill="none" stroke="black" d="M609,-84.82C609,-102.17 609,-125.8 609,-125.8 609,-125.8 442.77,-125.8 442.77,-125.8"/>
<polygon fill="black" stroke="black" points="442.77,-122.3 432.77,-125.8 442.77,-129.3 442.77,-122.3"/>
</g>
<!-- NotFoundComponent -->
<g id="node3" class="node">
<title>NotFoundComponent</title>
<polygon fill="#ffffb3" stroke="black" points="530.12,-84.8 391.88,-84.8 391.88,-48.8 530.12,-48.8 530.12,-84.8"/>
<text text-anchor="middle" x="461" y="-62.6" font-family="Times,serif" font-size="14.00">NotFoundComponent</text>
</g>
<!-- NotFoundComponent&#45;&gt;AppModule -->
<g id="edge3" class="edge">
<title>NotFoundComponent&#45;&gt;AppModule</title>
<path fill="none" stroke="black" d="M412.39,-84.91C412.39,-84.91 412.39,-103.79 412.39,-103.79"/>
<polygon fill="black" stroke="black" points="408.89,-103.79 412.39,-113.79 415.89,-103.79 408.89,-103.79"/>
</g>
<!-- AppComponent  -->
<g id="node8" class="node">
<title>AppComponent </title>
<polygon fill="#80b1d3" stroke="black" points="445.44,-214.8 336.56,-214.8 336.56,-178.8 445.44,-178.8 445.44,-214.8"/>
<text text-anchor="middle" x="391" y="-192.6" font-family="Times,serif" font-size="14.00">AppComponent </text>
</g>
<!-- AppModule&#45;&gt;AppComponent  -->
<g id="edge7" class="edge">
<title>AppModule&#45;&gt;AppComponent </title>
<path fill="none" stroke="black" stroke-dasharray="1,5" d="M391,-149.91C391,-149.91 391,-168.79 391,-168.79"/>
<polygon fill="black" stroke="black" points="387.5,-168.79 391,-178.79 394.5,-168.79 387.5,-168.79"/>
</g>
<!-- !environment -->
<g id="node5" class="node">
<title>!environment</title>
<polygon fill="#8dd3c7" stroke="black" points="367.92,-84.8 364.92,-88.8 343.92,-88.8 340.92,-84.8 276.08,-84.8 276.08,-48.8 367.92,-48.8 367.92,-84.8"/>
<text text-anchor="middle" x="322" y="-62.6" font-family="Times,serif" font-size="14.00">!environment</text>
</g>
<!-- !environment&#45;&gt;AppModule -->
<g id="edge4" class="edge">
<title>!environment&#45;&gt;AppModule</title>
<path fill="none" stroke="black" d="M358.44,-84.91C358.44,-84.91 358.44,-103.79 358.44,-103.79"/>
<polygon fill="black" stroke="black" points="354.94,-103.79 358.44,-113.79 361.94,-103.79 354.94,-103.79"/>
</g>
<!-- AppRoutingModule -->
<g id="node6" class="node">
<title>AppRoutingModule</title>
<polygon fill="#8dd3c7" stroke="black" points="258.28,-84.8 255.28,-88.8 234.28,-88.8 231.28,-84.8 129.72,-84.8 129.72,-48.8 258.28,-48.8 258.28,-84.8"/>
<text text-anchor="middle" x="194" y="-62.6" font-family="Times,serif" font-size="14.00">AppRoutingModule</text>
</g>
<!-- AppRoutingModule&#45;&gt;AppModule -->
<g id="edge5" class="edge">
<title>AppRoutingModule&#45;&gt;AppModule</title>
<path fill="none" stroke="black" d="M194,-84.82C194,-102.17 194,-125.8 194,-125.8 194,-125.8 339.22,-125.8 339.22,-125.8"/>
<polygon fill="black" stroke="black" points="339.22,-129.3 349.22,-125.8 339.22,-122.3 339.22,-129.3"/>
</g>
<!-- AuthModule -->
<g id="node7" class="node">
<title>AuthModule</title>
<polygon fill="#8dd3c7" stroke="black" points="111.55,-84.8 108.55,-88.8 87.55,-88.8 84.55,-84.8 24.45,-84.8 24.45,-48.8 111.55,-48.8 111.55,-84.8"/>
<text text-anchor="middle" x="68" y="-62.6" font-family="Times,serif" font-size="14.00">AuthModule</text>
</g>
<!-- AuthModule&#45;&gt;AppModule -->
<g id="edge6" class="edge">
<title>AuthModule&#45;&gt;AppModule</title>
<path fill="none" stroke="black" d="M68,-85.08C68,-106.12 68,-137.8 68,-137.8 68,-137.8 339.1,-137.8 339.1,-137.8"/>
<polygon fill="black" stroke="black" points="339.1,-141.3 349.1,-137.8 339.1,-134.3 339.1,-141.3"/>
</g>
</g>
</svg>
