<?xml version="1.0" encoding="UTF-8" standalone="no"?>
<!DOCTYPE svg PUBLIC "-//W3C//DTD SVG 1.1//EN"
 "http://www.w3.org/Graphics/SVG/1.1/DTD/svg11.dtd">
<!-- Generated by graphviz version 3.0.0 (20220226.1711)
 -->
<!-- Title: dependencies Pages: 1 -->
<svg width="826pt" height="247pt"
 viewBox="0.00 0.00 826.00 246.80" xmlns="http://www.w3.org/2000/svg" xmlns:xlink="http://www.w3.org/1999/xlink">
<g id="graph0" class="graph" transform="scale(1 1) rotate(0) translate(4 242.8)">
<title>dependencies</title>
<polygon fill="white" stroke="transparent" points="-4,4 -4,-242.8 822,-242.8 822,4 -4,4"/>
<text text-anchor="middle" x="409" y="-8.2" font-family="sans-serif" font-size="14.00">dependencies</text>
<g id="clust1" class="cluster">
<title>cluster_AppModule</title>
<polygon fill="none" stroke="black" stroke-dasharray="1,5" points="8,-32.8 8,-230.8 810,-230.8 810,-32.8 8,-32.8"/>
</g>
<g id="clust6" class="cluster">
<title>cluster_AppModule_imports</title>
<polygon fill="none" stroke="black" points="442,-40.8 442,-92.8 802,-92.8 802,-40.8 442,-40.8"/>
</g>
<g id="clust2" class="cluster">
<title>cluster_AppModule_declarations</title>
<polygon fill="none" stroke="black" points="16,-40.8 16,-92.8 434,-92.8 434,-40.8 16,-40.8"/>
</g>
<g id="clust8" class="cluster">
<title>cluster_AppModule_bootstrap</title>
<polygon fill="none" stroke="black" points="371,-170.8 371,-222.8 495,-222.8 495,-170.8 371,-170.8"/>
</g>
<!-- AppComponent -->
<g id="node1" class="node">
<title>AppComponent</title>
<polygon fill="#ffffb3" stroke="black" points="425.94,-84.8 320.06,-84.8 320.06,-48.8 425.94,-48.8 425.94,-84.8"/>
<text text-anchor="middle" x="373" y="-62.6" font-family="Times,serif" font-size="14.00">AppComponent</text>
</g>
<!-- AppModule -->
<g id="node4" class="node">
<title>AppModule</title>
<polygon fill="#8dd3c7" stroke="black" points="474.66,-149.8 471.66,-153.8 450.66,-153.8 447.66,-149.8 391.34,-149.8 391.34,-113.8 474.66,-113.8 474.66,-149.8"/>
<text text-anchor="middle" x="433" y="-127.6" font-family="Times,serif" font-size="14.00">AppModule</text>
</g>
<!-- AppComponent&#45;&gt;AppModule -->
<g id="edge1" class="edge">
<title>AppComponent&#45;&gt;AppModule</title>
<path fill="none" stroke="black" d="M408.44,-84.91C408.44,-84.91 408.44,-103.79 408.44,-103.79"/>
<polygon fill="black" stroke="black" points="404.94,-103.79 408.44,-113.79 411.94,-103.79 404.94,-103.79"/>
</g>
<!-- NavbarComponent -->
<g id="node2" class="node">
<title>NavbarComponent</title>
<polygon fill="#ffffb3" stroke="black" points="302.03,-84.8 179.97,-84.8 179.97,-48.8 302.03,-48.8 302.03,-84.8"/>
<text text-anchor="middle" x="241" y="-62.6" font-family="Times,serif" font-size="14.00">NavbarComponent</text>
</g>
<!-- NavbarComponent&#45;&gt;AppModule -->
<g id="edge2" class="edge">
<title>NavbarComponent&#45;&gt;AppModule</title>
<path fill="none" stroke="black" d="M241,-84.82C241,-102.17 241,-125.8 241,-125.8 241,-125.8 380.86,-125.8 380.86,-125.8"/>
<polygon fill="black" stroke="black" points="380.86,-129.3 390.86,-125.8 380.86,-122.3 380.86,-129.3"/>
</g>
<!-- NotFoundComponent -->
<g id="node3" class="node">
<title>NotFoundComponent</title>
<polygon fill="#ffffb3" stroke="black" points="162.12,-84.8 23.88,-84.8 23.88,-48.8 162.12,-48.8 162.12,-84.8"/>
<text text-anchor="middle" x="93" y="-62.6" font-family="Times,serif" font-size="14.00">NotFoundComponent</text>
</g>
<!-- NotFoundComponent&#45;&gt;AppModule -->
<g id="edge3" class="edge">
<title>NotFoundComponent&#45;&gt;AppModule</title>
<path fill="none" stroke="black" d="M93,-85.08C93,-106.12 93,-137.8 93,-137.8 93,-137.8 381.31,-137.8 381.31,-137.8"/>
<polygon fill="black" stroke="black" points="381.31,-141.3 391.31,-137.8 381.31,-134.3 381.31,-141.3"/>
</g>
<!-- AppComponent  -->
<g id="node8" class="node">
<title>AppComponent </title>
<polygon fill="#80b1d3" stroke="black" points="487.44,-214.8 378.56,-214.8 378.56,-178.8 487.44,-178.8 487.44,-214.8"/>
<text text-anchor="middle" x="433" y="-192.6" font-family="Times,serif" font-size="14.00">AppComponent </text>
</g>
<!-- AppModule&#45;&gt;AppComponent  -->
<g id="edge7" class="edge">
<title>AppModule&#45;&gt;AppComponent </title>
<path fill="none" stroke="black" stroke-dasharray="1,5" d="M433,-149.91C433,-149.91 433,-168.79 433,-168.79"/>
<polygon fill="black" stroke="black" points="429.5,-168.79 433,-178.79 436.5,-168.79 429.5,-168.79"/>
</g>
<!-- !environment -->
<g id="node5" class="node">
<title>!environment</title>
<polygon fill="#8dd3c7" stroke="black" points="793.92,-84.8 790.92,-88.8 769.92,-88.8 766.92,-84.8 702.08,-84.8 702.08,-48.8 793.92,-48.8 793.92,-84.8"/>
<text text-anchor="middle" x="748" y="-62.6" font-family="Times,serif" font-size="14.00">!environment</text>
</g>
<!-- !environment&#45;&gt;AppModule -->
<g id="edge4" class="edge">
<title>!environment&#45;&gt;AppModule</title>
<path fill="none" stroke="black" d="M748,-85.08C748,-106.12 748,-137.8 748,-137.8 748,-137.8 484.83,-137.8 484.83,-137.8"/>
<polygon fill="black" stroke="black" points="484.83,-134.3 474.83,-137.8 484.83,-141.3 484.83,-134.3"/>
</g>
<!-- AppRoutingModule -->
<g id="node6" class="node">
<title>AppRoutingModule</title>
<polygon fill="#8dd3c7" stroke="black" points="684.28,-84.8 681.28,-88.8 660.28,-88.8 657.28,-84.8 555.72,-84.8 555.72,-48.8 684.28,-48.8 684.28,-84.8"/>
<text text-anchor="middle" x="620" y="-62.6" font-family="Times,serif" font-size="14.00">AppRoutingModule</text>
</g>
<!-- AppRoutingModule&#45;&gt;AppModule -->
<g id="edge5" class="edge">
<title>AppRoutingModule&#45;&gt;AppModule</title>
<path fill="none" stroke="black" d="M620,-84.82C620,-102.17 620,-125.8 620,-125.8 620,-125.8 484.97,-125.8 484.97,-125.8"/>
<polygon fill="black" stroke="black" points="484.97,-122.3 474.97,-125.8 484.97,-129.3 484.97,-122.3"/>
</g>
<!-- AuthModule -->
<g id="node7" class="node">
<title>AuthModule</title>
<polygon fill="#8dd3c7" stroke="black" points="537.55,-84.8 534.55,-88.8 513.55,-88.8 510.55,-84.8 450.45,-84.8 450.45,-48.8 537.55,-48.8 537.55,-84.8"/>
<text text-anchor="middle" x="494" y="-62.6" font-family="Times,serif" font-size="14.00">AuthModule</text>
</g>
<!-- AuthModule&#45;&gt;AppModule -->
<g id="edge6" class="edge">
<title>AuthModule&#45;&gt;AppModule</title>
<path fill="none" stroke="black" d="M462.53,-84.91C462.53,-84.91 462.53,-103.79 462.53,-103.79"/>
<polygon fill="black" stroke="black" points="459.03,-103.79 462.53,-113.79 466.03,-103.79 459.03,-103.79"/>
</g>
</g>
</svg>
